<?xml version="1.0" standalone="no"?>
<!DOCTYPE svg PUBLIC "-//W3C//DTD SVG 20010904//EN"
 "http://www.w3.org/TR/2001/REC-SVG-20010904/DTD/svg10.dtd">
<svg version="1.0" xmlns="http://www.w3.org/2000/svg"
 width="329.000000pt" height="70.000000pt" viewBox="0 0 329.000000 70.000000"
 preserveAspectRatio="xMidYMid meet">

<g transform="translate(0.000000,70.000000) scale(0.100000,-0.100000)"
fill="#000000" stroke="none">
<path d="M0 350 l0 -350 1645 0 1645 0 0 350 0 350 -1645 0 -1645 0 0 -350z
m1078 13 l2 -243 -50 0 -50 0 0 246 0 245 48 -3 47 -3 3 -242z m140 0 l2 -243
-50 0 -50 0 0 246 0 245 48 -3 47 -3 3 -242z m492 137 c0 -60 2 -110 5 -110 4
0 20 7 37 16 37 19 96 14 134 -11 86 -56 86 -204 0 -260 -40 -27 -96 -29 -138
-7 -30 16 -38 17 -38 6 0 -10 -14 -14 -50 -14 l-50 0 0 238 c0 131 3 242 7
245 3 4 26 7 50 7 l43 0 0 -110z m-1170 86 c20 -4 46 -13 58 -21 l21 -16 -21
-43 -21 -44 -33 14 c-71 30 -150 7 -191 -55 -27 -40 -29 -80 -6 -128 25 -54
66 -75 138 -70 33 2 67 7 75 11 12 5 22 -6 38 -39 l22 -46 -37 -17 c-57 -25
-177 -22 -228 5 -143 76 -184 234 -92 355 49 65 154 113 222 102 11 -1 36 -5
55 -8z m1540 -91 l0 -95 75 0 75 0 0 95 0 95 50 0 50 0 0 -235 0 -235 -50 0
-49 0 -3 93 -3 92 -72 3 -73 3 0 -96 0 -95 -55 0 -55 0 0 235 0 235 55 0 55 0
0 -95z m398 -74 c3 -187 8 -201 72 -201 67 0 74 17 78 206 l4 164 49 0 49 0 0
-180 c0 -158 -2 -185 -19 -218 -29 -57 -72 -77 -161 -77 -88 0 -127 18 -159
75 -19 34 -21 54 -21 219 l0 182 53 -3 52 -3 3 -164z m496 156 c21 -7 47 -24
58 -38 27 -36 26 -103 -2 -141 -12 -16 -20 -30 -18 -32 1 -1 15 -8 29 -15 34
-17 54 -53 54 -101 0 -95 -60 -130 -218 -130 l-107 0 0 235 0 235 83 -1 c45 0
100 -6 121 -12z m-2104 -179 c62 -33 85 -68 85 -133 0 -38 -6 -62 -21 -82 -27
-38 -99 -73 -149 -73 -54 0 -124 37 -153 80 -19 28 -23 44 -19 83 2 27 13 61
24 75 26 37 99 72 148 72 23 0 60 -10 85 -22z m565 8 c19 -8 35 -11 35 -5 0 5
25 9 55 9 l55 0 0 -145 0 -145 -55 0 c-30 0 -55 4 -55 9 0 6 -16 3 -35 -5 -62
-25 -114 -13 -162 38 -43 46 -46 156 -5 201 48 54 105 69 167 43z"/>
<path d="M1739 320 c-40 -24 -29 -105 16 -116 41 -10 71 3 85 37 11 27 11 33
-7 57 -21 29 -66 39 -94 22z"/>
<path d="M2872 453 c3 -45 5 -48 28 -45 34 5 50 20 50 46 0 30 -18 46 -53 46
-27 0 -28 -1 -25 -47z"/>
<path d="M2870 255 l0 -55 33 0 c46 0 77 25 77 60 0 35 -23 50 -74 50 l-36 0
0 -55z"/>
<path d="M737 312 c-22 -25 -21 -75 1 -95 27 -25 78 -22 96 5 34 48 7 108 -48
108 -19 0 -40 -8 -49 -18z"/>
<path d="M1367 318 c-9 -7 -20 -27 -23 -44 -8 -39 22 -74 64 -74 33 0 45 8 61
38 31 59 -47 121 -102 80z"/>
</g>
</svg>
